<svg xmlns="http://www.w3.org/2000/svg" viewBox="0 0 24 24" id="Style-Three-Pin-Toilet--Streamline-Ultimate" height="24" width="24"><desc>Style Three Pin Toilet Streamline Icon: https://streamlinehq.com/</desc><defs></defs><title>style-three-pin-toilet</title><path d="M12 0.574a11.38 11.38 0 0 1 6.112 1.77c4.75 3.011 5.1 9.23 1.315 13.777a59.3 59.3 0 0 1 -7.106 7.188 0.5 0.5 0 0 1 -0.642 0 59.333 59.333 0 0 1 -7.106 -7.189C0.789 11.574 1.138 5.355 5.888 2.344A11.38 11.38 0 0 1 12 0.574Z" fill="#ecedff" stroke-width="1"></path><path d="M12 0.574a11.38 11.38 0 0 0 -6.112 1.77c-4.75 3.011 -5.1 9.23 -1.315 13.777a59.333 59.333 0 0 0 7.106 7.189 0.5 0.5 0 0 0 0.321 0.116Z" fill="#ffffff" stroke-width="1"></path><path d="M12 0.574a11.38 11.38 0 0 1 6.112 1.77c4.75 3.011 5.1 9.23 1.315 13.777a59.333 59.333 0 0 1 -7.106 7.189 0.5 0.5 0 0 1 -0.642 0 59.3 59.3 0 0 1 -7.106 -7.188C0.789 11.574 1.138 5.355 5.888 2.344A11.38 11.38 0 0 1 12 0.574Z" stroke="#00303e" stroke-linecap="round" stroke-linejoin="round" fill="none" stroke-width="1"></path><path d="M7.756 12.575a4.514 4.514 0 0 0 2.574 2.679l-0.591 1.652a0.5 0.5 0 0 0 0.471 0.669h3.58a0.5 0.5 0 0 0 0.471 -0.669l-0.591 -1.652a4.514 4.514 0 0 0 2.574 -2.679Z" fill="#ecedff" stroke-width="1"></path><path d="m16 6.575 -0.5 4 -7 0 -0.5 -4 8 0z" fill="#ecedff" stroke-width="1"></path><path d="m12 6.575 -4 0 0.5 4 3.5 0 0 -4z" fill="#ffffff" stroke-width="1"></path><path d="M12 12.575H7.756a4.514 4.514 0 0 0 2.574 2.679l-0.591 1.652a0.5 0.5 0 0 0 0.471 0.669H12Z" fill="#ffffff" stroke-width="1"></path><path d="M7 4.575h10v2H7Z" stroke="#00303e" stroke-linecap="round" stroke-linejoin="round" fill="#ffffff" stroke-width="1"></path><path d="M17 12.575H7v-1a1 1 0 0 1 1 -1h8a1 1 0 0 1 1 1Z" stroke="#00303e" stroke-linecap="round" stroke-linejoin="round" fill="#ffffff" stroke-width="1"></path><path d="m16 6.575 -0.5 4 -7 0 -0.5 -4 8 0z" stroke="#00303e" stroke-linecap="round" stroke-linejoin="round" fill="none" stroke-width="1"></path><path d="M7.756 12.575a4.514 4.514 0 0 0 2.574 2.679l-0.591 1.652a0.5 0.5 0 0 0 0.471 0.669h3.58a0.5 0.5 0 0 0 0.471 -0.669l-0.591 -1.652a4.514 4.514 0 0 0 2.574 -2.679Z" stroke="#00303e" stroke-linecap="round" stroke-linejoin="round" fill="none" stroke-width="1"></path></svg>